<?xml version="1.0" encoding="utf-8"?>
<!-- Generator: Adobe Illustrator 27.1.1, SVG Export Plug-In . SVG Version: 6.00 Build 0)  -->
<svg version="1.1" id="svg8"
    xmlns:inkscape="http://www.inkscape.org/namespaces/inkscape"
    xmlns:dc="http://purl.org/dc/elements/1.1/"
    xmlns:sodipodi="http://sodipodi.sourceforge.net/DTD/sodipodi-0.dtd"
    xmlns:cc="http://creativecommons.org/ns#"
    xmlns:rdf="http://www.w3.org/1999/02/22-rdf-syntax-ns#"
    xmlns:svg="http://www.w3.org/2000/svg"
    xmlns="http://www.w3.org/2000/svg"
    xmlns:xlink="http://www.w3.org/1999/xlink" x="0px" y="0px" viewBox="0 0 76.8 76.8" style="enable-background:new 0 0 76.8 76.8;" xml:space="preserve">
    <style type="text/css">
	.st0{fill:#E3E7FF;}
	.st1{fill:#191211;}
    </style>
    <sodipodi:namedview bordercolor="#666666" borderopacity="1.0" fit-margin-bottom="0" fit-margin-left="0" fit-margin-right="0" fit-margin-top="0" id="base" inkscape:current-layer="layer1" inkscape:cx="156.38093" inkscape:cy="-444.20618" inkscape:document-units="mm" inkscape:pageopacity="0" inkscape:pageshadow="2" inkscape:window-height="1001" inkscape:window-maximized="1" inkscape:window-width="1920" inkscape:window-x="-9" inkscape:window-y="-9" inkscape:zoom="0.35" pagecolor="#00ffff" showgrid="false">
    </sodipodi:namedview>
    <circle class="st0" cx="38.6" cy="38.4" r="37.4"/>
    <path id="path30" inkscape:connector-curvature="0" class="st1" d="M40,26.3c-2.9,0-5.2,0.6-7.3,2.1V14.1H22.2v45h10.3v-3
	c2.5,2.3,5.2,3.4,8.5,3.4c8,0,14.6-7.2,14.6-16.5C55.6,33.2,48.8,26.3,40,26.3 M38.9,49.3c-3.4,0-6.1-2.8-6.1-6.2
	c0-3.4,2.7-6.2,6.1-6.2c3.4,0,6.1,2.8,6.1,6.2C45,46.5,42.3,49.3,38.9,49.3"/>
</svg>
