<svg width="138" height="9" viewBox="0 0 138 9" fill="none" xmlns="http://www.w3.org/2000/svg">
<path d="M4.35166 8.9809C5.55212 8.9809 6.42938 8.68078 7.1335 7.99975C7.72218 7.43415 8.13773 6.62615 8.20698 5.71426H5.77144C5.69064 6.45301 5.18275 7.00707 4.34012 7.00707C3.26663 7.00707 2.62023 6.03746 2.62023 4.68695C2.62023 3.33643 3.17429 2.36683 4.31704 2.36683C5.10195 2.36683 5.64447 2.94397 5.70218 3.59037H8.11464C8.01075 2.53997 7.51441 1.61654 6.66024 1.02786C6.06001 0.612313 5.25201 0.381455 4.35166 0.381455C1.86995 0.381455 0.173143 2.21677 0.173143 4.68695C0.173143 7.15712 1.83532 8.9809 4.35166 8.9809ZM10.2934 8.78467H12.7058V5.55266H15.2453V8.78467H17.6577V0.531512H15.2453V3.55575H12.7058V0.531512H10.2934V8.78467ZM19.6042 8.78467H22.0051L22.4091 7.57267H25.2025L25.6065 8.78467H28.169L25.1102 0.531512H22.6515L19.6042 8.78467ZM23.4942 4.29449C23.6327 3.89049 23.8058 3.23254 23.8058 3.23254H23.8289C23.8289 3.23254 24.0136 3.89049 24.1406 4.29449L24.66 5.91049H22.9517L23.4942 4.29449ZM30.1241 8.78467H32.5366V5.91049H33.6562C34.3603 5.91049 34.6374 6.23369 34.7874 6.86855C34.9606 7.60729 34.8682 8.62307 35.0991 8.78467H37.4769V8.6577C37.1768 8.5769 37.3615 7.38798 37.1422 6.39529C37.0037 5.74889 36.6574 5.28718 35.9879 5.03323V4.99861C36.8536 4.60615 37.3384 3.93666 37.3384 2.99014C37.3384 1.30489 35.9071 0.531512 34.2218 0.531512H30.1241V8.78467ZM32.5366 2.42454H33.864C34.5566 2.42454 34.9029 2.77083 34.9029 3.31335C34.9029 3.89049 34.5219 4.1906 33.8294 4.1906H32.5366V2.42454ZM39.2823 2.58614H41.614V8.78467H44.0264V2.58614H46.3927V0.531512H39.2823V2.58614ZM51.8941 8.9809C53.8448 8.9809 55.4493 8.02284 55.4493 6.22215C55.4493 4.46763 54.0641 3.92512 52.679 3.59037C51.4439 3.29026 50.7398 3.221 50.7398 2.7362C50.7398 2.40146 51.1091 2.15906 51.6401 2.15906C52.2981 2.15906 52.6213 2.44763 52.6905 2.8978H55.0799C55.0453 1.09711 53.4754 0.381455 51.7671 0.381455C49.9087 0.381455 48.3619 1.09711 48.3619 2.99014C48.3619 4.74466 50.0357 5.21792 51.4208 5.56421C52.4366 5.81815 52.9906 5.94512 52.9906 6.44146C52.9906 6.93781 52.4135 7.12249 51.9402 7.12249C51.1438 7.12249 50.6359 6.81084 50.5551 6.15289H48.0849C48.1195 8.05747 49.7471 8.9809 51.8941 8.9809ZM60.8354 8.78467H63.2478V6.26832H65.0716C66.7338 6.26832 67.9111 5.06786 67.9111 3.47495C67.9111 2.56306 67.5764 1.81277 66.9877 1.29334C66.4452 0.808541 65.6834 0.531512 64.633 0.531512H60.8354V8.78467ZM63.2478 2.52843H64.5291C65.1524 2.52843 65.5102 2.88626 65.5102 3.44032C65.5102 4.00592 65.1409 4.39838 64.5522 4.39838H63.2478V2.52843ZM73.6481 8.93473C76.1183 8.93473 77.3303 7.66501 77.3303 5.63346V0.531512H74.9179V5.72581C74.9179 6.47609 74.5023 7.00707 73.6828 7.00707C72.794 7.00707 72.3784 6.53381 72.3784 5.77198V0.531512H69.966V5.63346C69.966 7.69964 71.1664 8.93473 73.6481 8.93473ZM79.7643 8.78467H84.116C84.9702 8.78467 85.6166 8.61152 86.1129 8.26524C86.7016 7.8497 87.0594 7.18021 87.0594 6.29141C87.0594 5.35643 86.54 4.5946 85.6396 4.30603V4.2714C86.3322 3.97129 86.667 3.47495 86.667 2.69003C86.667 2.009 86.3784 1.4434 85.882 1.06248C85.4434 0.727742 84.8432 0.531512 84.0352 0.531512H79.7643V8.78467ZM82.1306 6.89164V5.28718H83.839C84.3353 5.28718 84.7278 5.55266 84.7278 6.08364C84.7278 6.57998 84.3699 6.89164 83.8505 6.89164H82.1306ZM82.1306 3.74043V2.40146H83.6196C84.0814 2.40146 84.4046 2.6554 84.4046 3.08249C84.4046 3.52112 84.0929 3.74043 83.6312 3.74043H82.1306ZM89.1668 8.78467H95.1114V6.71849H91.5793V0.531512H89.1668V8.78467ZM97.2504 8.78467H99.6629V0.531512H97.2504V8.78467ZM105.537 8.9809C107.488 8.9809 109.093 8.02284 109.093 6.22215C109.093 4.46763 107.707 3.92512 106.322 3.59037C105.087 3.29026 104.383 3.221 104.383 2.7362C104.383 2.40146 104.752 2.15906 105.283 2.15906C105.941 2.15906 106.265 2.44763 106.334 2.8978H108.723C108.689 1.09711 107.119 0.381455 105.41 0.381455C103.552 0.381455 102.005 1.09711 102.005 2.99014C102.005 4.74466 103.679 5.21792 105.064 5.56421C106.08 5.81815 106.634 5.94512 106.634 6.44146C106.634 6.93781 106.057 7.12249 105.583 7.12249C104.787 7.12249 104.279 6.81084 104.198 6.15289H101.728C101.763 8.05747 103.39 8.9809 105.537 8.9809ZM111.253 8.78467H113.666V5.55266H116.205V8.78467H118.618V0.531512H116.205V3.55575H113.666V0.531512H111.253V8.78467ZM121.107 8.78467H127.652V6.71849H123.519V5.42569H126.878V3.61346H123.519V2.4938H127.536V0.531512H121.107V8.78467ZM129.957 8.78467H132.369V5.91049H133.489C134.193 5.91049 134.47 6.23369 134.62 6.86855C134.793 7.60729 134.701 8.62307 134.932 8.78467H137.31V8.6577C137.01 8.5769 137.194 7.38798 136.975 6.39529C136.836 5.74889 136.49 5.28718 135.821 5.03323V4.99861C136.686 4.60615 137.171 3.93666 137.171 2.99014C137.171 1.30489 135.74 0.531512 134.055 0.531512H129.957V8.78467ZM132.369 2.42454H133.697C134.389 2.42454 134.736 2.77083 134.736 3.31335C134.736 3.89049 134.355 4.1906 133.662 4.1906H132.369V2.42454Z" fill="white"/>
</svg>
